<svg width="150" height="150" viewBox="0 0 150 150" fill="none" xmlns="http://www.w3.org/2000/svg">
<path d="M104.348 55.7335L95.1085 52.4727L88.5868 62.7987L97.2824 66.0596L104.348 55.7335Z" fill="#DC73FF"/>
<path d="M73.1872 28.4091L69.5122 37.4914L79.533 44.4731L83.1835 35.9337L73.1872 28.4091Z" fill="#211F20"/>
<path d="M21.8195 75.1315L12.0226 75.0067L9.15794 86.8792L18.4401 87.1783L21.8195 75.1315Z" fill="#211F20"/>
<path d="M48.1391 136.573L41.636 129.245L30.9284 135.119L36.9561 142.185L48.1391 136.573Z" fill="#FF3700"/>
<path d="M83.9824 81.5004L75.7838 86.8649L80.0334 98.3149L87.9022 93.3823L83.9824 81.5004Z" fill="#211F20"/>
<path d="M65.0747 115.043L126.182 143.573C127.892 144.372 129.737 142.761 129.177 140.959L109.657 78.0951C109.199 76.6187 107.389 76.0792 106.197 77.0634L64.6104 111.397C63.3787 112.413 63.6274 114.367 65.0747 115.043Z" fill="#FF3700"/>
<path d="M34.9125 78.6589L40.2157 72.4625C40.5722 72.046 40.5722 71.4318 40.2157 71.0152L35.4944 65.4988C34.7417 64.6193 35.6651 63.318 36.7438 63.7382L43.9157 66.5314C44.4865 66.7537 45.1297 66.473 45.3547 65.9033L48.1184 58.9068C48.4761 58.0012 49.7421 57.9592 50.1591 58.839L53.7978 66.5154C53.9247 66.783 54.1529 66.9889 54.432 67.0878L59.6518 68.9359C60.6834 69.3012 60.6237 70.7798 59.566 71.0607L55.3823 72.1716C54.6798 72.3582 54.3418 73.1571 54.697 73.7912L57.7575 79.2545C58.2208 80.0814 57.5042 81.0719 56.5738 80.8908L51.4236 79.8878C50.9878 79.803 50.5434 79.9852 50.2926 80.3515L47.5104 84.4149C46.922 85.2743 45.5809 84.9267 45.484 83.8896L45.0694 79.4487C45.0057 78.7658 44.3454 78.3026 43.6816 78.475L36.0377 80.4597C34.9835 80.7334 34.2043 79.4863 34.9125 78.6589Z" fill="#FF3700"/>
<circle cx="121.739" cy="49.9992" r="5.43478" fill="#FF3700"/>
<circle cx="26.0871" cy="42.3918" r="5.43478" fill="#DC73FF"/>
</svg>
