<svg width="227" height="150" viewBox="0 0 227 150" fill="none" xmlns="http://www.w3.org/2000/svg">
<rect x="95.8359" y="33.6934" width="40.611" height="6.89621" rx="3.44811" transform="rotate(90 95.8359 33.6934)" fill="#A12300"/>
<path d="M113.211 134.068L137.22 57.4434L161.229 134.068H113.211Z" fill="url(#paint0_linear_5135_23468)"/>
<path d="M45.9282 57.4434H137.214L114.075 134.068H23.043L45.9282 57.4434Z" fill="#FF4D12"/>
<path d="M91.9008 57.4434L69.0156 134.068" stroke="#DE3000" stroke-width="1.02166"/>
<path d="M69.4243 57.4434L46.5391 134.068" stroke="#DE3000" stroke-width="1.02166"/>
<path d="M114.381 57.4434L91.4961 134.068" stroke="#DE3000" stroke-width="1.02166"/>
<rect x="58.293" y="29.0957" width="68.1959" height="22.2211" rx="11.1106" fill="#FF4D12"/>
<path d="M69.6518 35.5881H74.4064C75.2921 35.5881 75.9999 35.8095 76.5296 36.2524C77.0681 36.6866 77.3373 37.3119 77.3373 38.1282C77.3373 38.4929 77.2548 38.8359 77.0898 39.1572C76.9334 39.4785 76.7033 39.7391 76.3994 39.9388C76.8249 40.1299 77.1332 40.3817 77.3242 40.6943C77.524 41.007 77.6238 41.4151 77.6238 41.9188C77.6238 42.4833 77.4892 42.9782 77.22 43.4038C76.9508 43.8206 76.5861 44.1419 76.1258 44.3677C75.6742 44.5848 75.1706 44.6934 74.6148 44.6934H69.6518V35.5881ZM73.703 39.1182C73.9982 39.1182 74.2197 39.053 74.3673 38.9228C74.5236 38.7925 74.6018 38.5841 74.6018 38.2975C74.6018 38.0022 74.5279 37.7982 74.3803 37.6853C74.2327 37.5637 74.0026 37.5029 73.6899 37.5029H72.3482V39.1182H73.703ZM73.8593 42.7785C74.2153 42.7785 74.4758 42.7134 74.6408 42.5831C74.8058 42.4529 74.8883 42.2271 74.8883 41.9058C74.8883 41.5931 74.8015 41.363 74.6278 41.2154C74.4628 41.0677 74.1979 40.9939 73.8332 40.9939H72.3482V42.7785H73.8593ZM82.7364 44.8888C81.8159 44.8888 80.9779 44.689 80.2224 44.2895C79.4755 43.8901 78.885 43.3343 78.4508 42.6222C78.0253 41.9014 77.8125 41.0764 77.8125 40.1472C77.8125 39.218 78.0253 38.393 78.4508 37.6722C78.885 36.9515 79.4755 36.3913 80.2224 35.9919C80.9779 35.5924 81.8159 35.3927 82.7364 35.3927C83.6569 35.3927 84.4863 35.5924 85.2244 35.9919C85.9712 36.3913 86.5574 36.9515 86.9829 37.6722C87.4171 38.393 87.6342 39.218 87.6342 40.1472C87.6342 41.0764 87.4171 41.9014 86.9829 42.6222C86.5574 43.3343 85.9712 43.8901 85.2244 44.2895C84.4863 44.689 83.6569 44.8888 82.7364 44.8888ZM82.7364 42.3617C83.1359 42.3617 83.4963 42.2748 83.8176 42.1011C84.1476 41.9188 84.4081 41.6626 84.5991 41.3326C84.7902 40.9939 84.8857 40.5988 84.8857 40.1472C84.8857 39.4785 84.6816 38.9445 84.2735 38.545C83.8653 38.1455 83.353 37.9458 82.7364 37.9458C82.1111 37.9458 81.5901 38.1455 81.1733 38.545C80.7651 38.9445 80.561 39.4785 80.561 40.1472C80.561 40.5988 80.6566 40.9939 80.8476 41.3326C81.0387 41.6626 81.2992 41.9188 81.6292 42.1011C81.9592 42.2748 82.3283 42.3617 82.7364 42.3617ZM93.0149 44.8888C92.0944 44.8888 91.2563 44.689 90.5008 44.2895C89.754 43.8901 89.1635 43.3343 88.7293 42.6222C88.3037 41.9014 88.091 41.0764 88.091 40.1472C88.091 39.218 88.3037 38.393 88.7293 37.6722C89.1635 36.9515 89.754 36.3913 90.5008 35.9919C91.2563 35.5924 92.0944 35.3927 93.0149 35.3927C93.9354 35.3927 94.7647 35.5924 95.5029 35.9919C96.2497 36.3913 96.8359 36.9515 97.2614 37.6722C97.6956 38.393 97.9127 39.218 97.9127 40.1472C97.9127 41.0764 97.6956 41.9014 97.2614 42.6222C96.8359 43.3343 96.2497 43.8901 95.5029 44.2895C94.7647 44.689 93.9354 44.8888 93.0149 44.8888ZM93.0149 42.3617C93.4143 42.3617 93.7747 42.2748 94.096 42.1011C94.426 41.9188 94.6866 41.6626 94.8776 41.3326C95.0687 40.9939 95.1642 40.5988 95.1642 40.1472C95.1642 39.4785 94.9601 38.9445 94.552 38.545C94.1438 38.1455 93.6314 37.9458 93.0149 37.9458C92.3896 37.9458 91.8686 38.1455 91.4517 38.545C91.0436 38.9445 90.8395 39.4785 90.8395 40.1472C90.8395 40.5988 90.935 40.9939 91.1261 41.3326C91.3171 41.6626 91.5777 41.9188 91.9076 42.1011C92.2376 42.2748 92.6067 42.3617 93.0149 42.3617ZM100.229 37.8546H97.7797V35.5881H105.374V37.8546H102.925V44.6934H100.229V37.8546ZM105.957 35.5881H108.654V38.9358H111.689V35.5881H114.385V44.6934H111.689V41.2023H108.654V44.6934H105.957V35.5881Z" fill="#140707"/>
<path d="M134.538 91.6653L160.498 66.0811C160.822 65.7618 160.798 65.2321 160.446 64.9433L144.725 52.03C144.193 51.5933 144.462 50.7316 145.147 50.6743L168.544 48.7169C168.966 48.6816 169.279 48.3112 169.244 47.8895L167.302 24.6839C167.243 23.9834 168.08 23.5803 168.592 24.0628L188.192 42.5588C188.533 42.8809 189.081 42.8232 189.348 42.437L207.32 16.419C207.793 15.735 208.863 16.1873 208.702 17.0028L201.998 50.9773C201.919 51.3785 202.169 51.7712 202.566 51.8695L225.729 57.604C226.493 57.7933 226.509 58.874 225.751 59.0858L203.876 65.1956C203.42 65.3228 203.188 65.8279 203.387 66.2566L215.231 91.7365C215.534 92.389 214.852 93.062 214.204 92.75L192.703 82.4048C192.357 82.2382 191.941 82.3537 191.731 82.6749L180.098 100.403C179.775 100.895 179.041 100.854 178.775 100.33L168.327 79.7681C168.145 79.4095 167.716 79.2529 167.346 79.4094L135.374 92.9169C134.596 93.2456 133.937 92.2582 134.538 91.6653Z" fill="#EEEEEE"/>
<rect x="191.648" y="32.9531" width="4.22137" height="10.0691" rx="1.13418" transform="rotate(9.22557 191.648 32.9531)" fill="black"/>
<path d="M178.813 43.272C182.775 40.3692 187.727 39.1589 192.581 39.9074C197.434 40.656 201.792 43.3019 204.695 47.2633C207.598 51.2247 208.808 56.1772 208.06 61.031C207.311 65.8846 204.665 70.2422 200.704 73.145C196.742 76.0478 191.79 77.2582 186.936 76.5097C182.082 75.7612 177.725 73.1151 174.822 69.1538C171.919 65.1924 170.709 60.2399 171.457 55.3861C172.206 50.5324 174.852 46.1748 178.813 43.272Z" fill="white" stroke="black" stroke-width="3.83123"/>
<path d="M189.572 58.9801L190.3 50.5191" stroke="black" stroke-width="3.6602" stroke-linecap="round" stroke-linejoin="round"/>
<rect x="186.147" y="30.923" width="16.1835" height="3.14043" transform="rotate(9.22557 186.147 30.923)" fill="black" stroke="black" stroke-width="0.82921"/>
<path d="M189.397 59.086L200.204 53.4249" stroke="#FF4D12" stroke-width="3.6602" stroke-linecap="round" stroke-linejoin="round"/>
<path d="M217.353 35.72L209.254 41.7865L207.008 39.2948L214.551 30.3248L217.353 35.72Z" fill="black"/>
<ellipse cx="215.098" cy="45.1224" rx="2.37292" ry="3.19717" transform="rotate(80.4908 215.098 45.1224)" fill="black"/>
<defs>
<linearGradient id="paint0_linear_5135_23468" x1="160.718" y1="114.146" x2="134.155" y2="102.907" gradientUnits="userSpaceOnUse">
<stop stop-color="#641A03"/>
<stop offset="1" stop-color="#140707"/>
</linearGradient>
</defs>
</svg>
