<svg width="325" height="210" viewBox="0 0 325 210" fill="none" xmlns="http://www.w3.org/2000/svg">
<path d="M150.295 78.2764C152.268 77.4591 154.485 77.4591 156.458 78.2764V78.2764C158.431 79.0937 159.998 80.6613 160.816 82.6344V82.6344C161.633 84.6074 161.633 86.8244 160.816 88.7974V88.7974C159.998 90.7705 158.431 92.3381 156.458 93.1554V93.1554C154.485 93.9727 152.268 93.9727 150.295 93.1554V93.1554C148.321 92.3381 146.754 90.7705 145.937 88.7974V88.7974C145.119 86.8244 145.119 84.6074 145.937 82.6344V82.6344C146.754 80.6613 148.321 79.0937 150.295 78.2764V78.2764Z" stroke="black" stroke-width="7.81713"/>
<path d="M139.441 95.4131C149.434 91.274 160.662 91.274 170.654 95.4131C180.647 99.5523 188.586 107.492 192.726 117.484C196.865 127.477 196.865 138.705 192.726 148.697C188.586 158.69 180.647 166.629 170.654 170.769C160.662 174.908 149.434 174.908 139.441 170.769C129.449 166.629 121.509 158.69 117.37 148.697C113.231 138.705 113.231 127.477 117.37 117.484C121.509 107.492 129.449 99.5522 139.441 95.4131Z" fill="white" stroke="black" stroke-width="7.21581"/>
<path d="M133.804 152.537L135.932 154.664L159.991 137.974L150.636 128.619L133.804 152.537Z" fill="#FF4D12"/>
<path d="M174.589 111.751L176.717 113.879L160.026 137.938L150.672 128.584L174.589 111.751Z" fill="#9BA5AB"/>
<path d="M153.284 130.79C154.076 130.25 155.051 130.048 155.992 130.227C156.934 130.405 157.766 130.951 158.306 131.743C158.845 132.536 159.048 133.51 158.869 134.452C158.69 135.393 158.145 136.225 157.352 136.765C156.56 137.304 155.586 137.507 154.644 137.328C153.702 137.15 152.87 136.604 152.331 135.812C151.791 135.019 151.589 134.045 151.767 133.103C151.946 132.162 152.492 131.329 153.284 130.79Z" fill="white"/>
</svg>
